<mxfile host="65bd71144e">
    <diagram id="7mMmeAlnU-G-0SFsMdYG" name="Page-1">
        <mxGraphModel dx="1340" dy="1507" grid="0" gridSize="10" guides="1" tooltips="1" connect="1" arrows="1" fold="1" page="0" pageScale="1" pageWidth="850" pageHeight="1100" background="#ffffff" math="0" shadow="0">
            <root>
                <mxCell id="0"/>
                <mxCell id="1" parent="0"/>
                <mxCell id="5" style="edgeStyle=none;html=1;fontSize=14;fontColor=#65899E;strokeColor=#65899E;strokeWidth=5;exitX=1.006;exitY=0.167;exitDx=0;exitDy=0;exitPerimeter=0;" edge="1" parent="1" source="2">
                    <mxGeometry relative="1" as="geometry">
                        <mxPoint x="480" as="targetPoint"/>
                    </mxGeometry>
                </mxCell>
                <mxCell id="2" value="Sender workstation" style="rounded=0;whiteSpace=wrap;html=1;fillColor=none;strokeColor=#999999;strokeWidth=5;fontColor=#000000;fontStyle=1;fontSize=18;" vertex="1" parent="1">
                    <mxGeometry x="124.5" y="-42" width="160" height="240" as="geometry"/>
                </mxCell>
                <mxCell id="4" value="Addressed &amp;amp; find out that receiver is not on same section" style="text;html=1;strokeColor=none;fillColor=none;align=center;verticalAlign=middle;whiteSpace=wrap;rounded=0;fontSize=14;fontColor=#65899E;" vertex="1" parent="1">
                    <mxGeometry x="99.5" y="-82" width="210" height="30" as="geometry"/>
                </mxCell>
                <mxCell id="6" value="Broadcast a RIP packet &lt;br&gt;to destination" style="text;html=1;align=center;verticalAlign=middle;resizable=0;points=[];autosize=1;strokeColor=none;fillColor=none;fontSize=14;fontColor=#65899E;" vertex="1" parent="1">
                    <mxGeometry x="309.5" y="-40" width="160" height="40" as="geometry"/>
                </mxCell>
                <mxCell id="7" value="" style="rounded=0;whiteSpace=wrap;html=1;fillColor=none;strokeColor=#999999;strokeWidth=5;fontColor=#000000;fontStyle=1;fontSize=18;" vertex="1" parent="1">
                    <mxGeometry x="480" y="-40" width="280" height="320" as="geometry"/>
                </mxCell>
                <mxCell id="10" style="edgeStyle=none;html=1;exitX=0;exitY=0.307;exitDx=0;exitDy=0;fontSize=14;fontColor=#65899E;strokeColor=#65899E;strokeWidth=5;entryX=1;entryY=0.5;entryDx=0;entryDy=0;exitPerimeter=0;" edge="1" parent="1" source="9" target="2">
                    <mxGeometry relative="1" as="geometry">
                        <mxPoint x="470" y="90" as="targetPoint"/>
                    </mxGeometry>
                </mxCell>
                <mxCell id="9" value="Router with shortest path&lt;br&gt;to destination" style="rounded=0;whiteSpace=wrap;html=1;fillColor=none;strokeColor=#999999;strokeWidth=5;fontColor=#000000;fontStyle=1;fontSize=18;" vertex="1" parent="1">
                    <mxGeometry x="580" y="40" width="160" height="140" as="geometry"/>
                </mxCell>
                <mxCell id="11" value="" style="endArrow=classic;html=1;fontSize=14;fontColor=#65899E;strokeColor=#65899E;strokeWidth=5;entryX=0.5;entryY=0;entryDx=0;entryDy=0;dashed=1;dashPattern=1 1;" edge="1" parent="1" target="9">
                    <mxGeometry width="50" height="50" relative="1" as="geometry">
                        <mxPoint x="480" y="1" as="sourcePoint"/>
                        <mxPoint x="440" y="10" as="targetPoint"/>
                        <Array as="points">
                            <mxPoint x="660" y="1"/>
                        </Array>
                    </mxGeometry>
                </mxCell>
                <mxCell id="12" value="Response &amp;amp; include &lt;br&gt;self network, node address &lt;br&gt;in header" style="text;html=1;align=center;verticalAlign=middle;resizable=0;points=[];autosize=1;strokeColor=none;fillColor=none;fontSize=14;fontColor=#65899E;" vertex="1" parent="1">
                    <mxGeometry x="301" y="23" width="177" height="55" as="geometry"/>
                </mxCell>
                <mxCell id="13" value="" style="endArrow=classic;html=1;fontSize=14;fontColor=#65899E;strokeColor=#65899E;strokeWidth=5;exitX=1.013;exitY=0.717;exitDx=0;exitDy=0;entryX=0;entryY=0.658;entryDx=0;entryDy=0;entryPerimeter=0;exitPerimeter=0;" edge="1" parent="1" source="2" target="9">
                    <mxGeometry width="50" height="50" relative="1" as="geometry">
                        <mxPoint x="390" y="40" as="sourcePoint"/>
                        <mxPoint x="440" y="-10" as="targetPoint"/>
                    </mxGeometry>
                </mxCell>
                <mxCell id="14" value="Set IPX header &lt;br&gt;&amp;amp; send packet" style="text;html=1;align=center;verticalAlign=middle;resizable=0;points=[];autosize=1;strokeColor=none;fillColor=none;fontSize=14;fontColor=#65899E;" vertex="1" parent="1">
                    <mxGeometry x="337" y="134" width="105" height="38" as="geometry"/>
                </mxCell>
                <mxCell id="16" value="" style="endArrow=classic;html=1;fontSize=14;fontColor=#65899E;strokeColor=#FF6666;strokeWidth=5;" edge="1" parent="1">
                    <mxGeometry width="50" height="50" relative="1" as="geometry">
                        <mxPoint x="64.5" y="-82" as="sourcePoint"/>
                        <mxPoint x="64.5" y="478" as="targetPoint"/>
                    </mxGeometry>
                </mxCell>
                <mxCell id="17" value="&lt;font color=&quot;#ff6666&quot;&gt;Time&lt;/font&gt;" style="text;html=1;align=center;verticalAlign=middle;resizable=0;points=[];autosize=1;strokeColor=none;fillColor=none;fontSize=14;fontColor=#65899E;" vertex="1" parent="1">
                    <mxGeometry x="14.5" y="-72" width="50" height="20" as="geometry"/>
                </mxCell>
                <mxCell id="18" value="Determine how to&amp;nbsp; route the packet" style="text;html=1;strokeColor=none;fillColor=none;align=center;verticalAlign=middle;whiteSpace=wrap;rounded=0;fontSize=14;fontColor=#65899E;" vertex="1" parent="1">
                    <mxGeometry x="595" y="190" width="130" height="30" as="geometry"/>
                </mxCell>
                <mxCell id="21" value="Forward the packet" style="text;html=1;align=center;verticalAlign=middle;resizable=0;points=[];autosize=1;strokeColor=none;fillColor=none;fontSize=14;fontColor=#65899E;" vertex="1" parent="1">
                    <mxGeometry x="625" y="240" width="140" height="20" as="geometry"/>
                </mxCell>
                <mxCell id="24" value="Next router &lt;br&gt;in the path" style="rounded=0;whiteSpace=wrap;html=1;fillColor=none;strokeColor=#999999;strokeWidth=5;fontColor=#000000;fontStyle=1;fontSize=18;" vertex="1" parent="1">
                    <mxGeometry x="840" y="280" width="160" height="140" as="geometry"/>
                </mxCell>
                <mxCell id="26" value="Destination&lt;br&gt;addressed" style="text;html=1;align=center;verticalAlign=middle;resizable=0;points=[];autosize=1;strokeColor=none;fillColor=none;fontSize=14;fontColor=#65899E;" vertex="1" parent="1">
                    <mxGeometry x="995" y="320" width="90" height="40" as="geometry"/>
                </mxCell>
                <mxCell id="29" value="" style="endArrow=none;dashed=1;html=1;fontSize=14;fontColor=#65899E;strokeColor=#000000;strokeWidth=5;" edge="1" parent="1">
                    <mxGeometry width="50" height="50" relative="1" as="geometry">
                        <mxPoint x="800" y="480" as="sourcePoint"/>
                        <mxPoint x="800" y="-80" as="targetPoint"/>
                    </mxGeometry>
                </mxCell>
                <mxCell id="30" value="&lt;font style=&quot;font-size: 18px;&quot;&gt;&lt;span style=&quot;font-size: 18px;&quot;&gt;S&lt;/span&gt;&lt;/font&gt;&lt;span style=&quot;font-size: 18px;&quot;&gt;egment&lt;/span&gt;&lt;span style=&quot;font-size: 18px;&quot;&gt;&amp;nbsp;1&lt;/span&gt;" style="text;html=1;align=center;verticalAlign=middle;resizable=0;points=[];autosize=1;strokeColor=none;fillColor=none;fontSize=18;fontColor=#000000;fontStyle=1;labelBackgroundColor=none;" vertex="1" parent="1">
                    <mxGeometry x="691" y="-82" width="101" height="26" as="geometry"/>
                </mxCell>
                <mxCell id="31" value="&lt;font style=&quot;font-size: 18px;&quot;&gt;&lt;span style=&quot;font-size: 18px;&quot;&gt;S&lt;/span&gt;&lt;/font&gt;&lt;span style=&quot;font-size: 18px;&quot;&gt;egment&lt;/span&gt;&lt;span style=&quot;font-size: 18px;&quot;&gt;&amp;nbsp;2&lt;/span&gt;" style="text;html=1;align=center;verticalAlign=middle;resizable=0;points=[];autosize=1;strokeColor=none;fillColor=none;fontSize=18;fontColor=#000000;fontStyle=1;labelBackgroundColor=none;" vertex="1" parent="1">
                    <mxGeometry x="811" y="-82" width="101" height="26" as="geometry"/>
                </mxCell>
                <mxCell id="32" value="&lt;font style=&quot;font-size: 18px&quot; color=&quot;#000000&quot;&gt;&lt;b&gt;All routers&lt;/b&gt;&lt;/font&gt;" style="text;html=1;align=center;verticalAlign=middle;resizable=0;points=[];autosize=1;strokeColor=none;fillColor=none;fontSize=14;fontColor=#65899E;" vertex="1" parent="1">
                    <mxGeometry x="489" y="248" width="100" height="22" as="geometry"/>
                </mxCell>
                <mxCell id="34" value="" style="rounded=0;whiteSpace=wrap;html=1;fontSize=18;fontColor=#000000;strokeColor=#999999;strokeWidth=5;fillColor=none;" vertex="1" parent="1">
                    <mxGeometry x="830" y="200" width="310" height="240" as="geometry"/>
                </mxCell>
                <mxCell id="35" value="" style="endArrow=classic;html=1;fontSize=18;fontColor=#000000;strokeColor=#65899E;strokeWidth=5;entryX=0.29;entryY=0.333;entryDx=0;entryDy=0;entryPerimeter=0;exitX=0.943;exitY=1.014;exitDx=0;exitDy=0;exitPerimeter=0;" edge="1" parent="1" source="9" target="34">
                    <mxGeometry width="50" height="50" relative="1" as="geometry">
                        <mxPoint x="660" y="450" as="sourcePoint"/>
                        <mxPoint x="710" y="400" as="targetPoint"/>
                        <Array as="points">
                            <mxPoint x="731" y="230"/>
                            <mxPoint x="920" y="230"/>
                        </Array>
                    </mxGeometry>
                </mxCell>
                <mxCell id="36" value="Receiver&lt;br&gt;&lt;div style=&quot;&quot;&gt;&lt;span&gt;workstation&lt;/span&gt;&lt;/div&gt;" style="text;html=1;align=right;verticalAlign=middle;resizable=0;points=[];autosize=1;strokeColor=none;fillColor=none;fontSize=18;fontColor=#000000;fontStyle=1" vertex="1" parent="1">
                    <mxGeometry x="1010" y="210" width="120" height="50" as="geometry"/>
                </mxCell>
            </root>
        </mxGraphModel>
    </diagram>
</mxfile>